HIERARCHY
ROOT Hips
{
	OFFSET 0.00000 0.00000 0.00000
	CHANNELS 6 Xposition Yposition Zposition Zrotation Yrotation Xrotation 
	JOINT LHipJoint
	{
		OFFSET 0 0 0
		CHANNELS 3 Zrotation Yrotation Xrotation
		JOINT LeftUpLeg
		{
			OFFSET 1.66553 -1.82942 0.76350
			CHANNELS 3 Zrotation Yrotation Xrotation
			JOINT LeftLeg
			{
				OFFSET 2.41740 -6.64177 0.00000
				CHANNELS 3 Zrotation Yrotation Xrotation
				JOINT LeftFoot
				{
					OFFSET 2.71614 -7.46254 0.00000
					CHANNELS 3 Zrotation Yrotation Xrotation
					JOINT LeftToeBase
					{
						OFFSET 0.08005 -0.21993 1.82495
						CHANNELS 3 Zrotation Yrotation Xrotation
						End Site
						{
							OFFSET 0.00000 -0.00000 0.93441
						}
					}
				}
			}
		}
	}
	JOINT RHipJoint
	{
		OFFSET 0 0 0
		CHANNELS 3 Zrotation Yrotation Xrotation
		JOINT RightUpLeg
		{
			OFFSET -1.63725 -1.82942 0.76350
			CHANNELS 3 Zrotation Yrotation Xrotation
			JOINT RightLeg
			{
				OFFSET -2.40538 -6.60872 0.00000
				CHANNELS 3 Zrotation Yrotation Xrotation
				JOINT RightFoot
				{
					OFFSET -2.73312 -7.50919 0.00000
					CHANNELS 3 Zrotation Yrotation Xrotation
					JOINT RightToeBase
					{
						OFFSET -0.15567 -0.42769 1.93504
						CHANNELS 3 Zrotation Yrotation Xrotation
						End Site
						{
							OFFSET -0.00000 -0.00000 1.00100
						}
					}
				}
			}
		}
	}
	JOINT LowerBack
	{
		OFFSET 0 0 0
		CHANNELS 3 Zrotation Yrotation Xrotation
		JOINT Spine
		{
			OFFSET 0.00326 2.30118 -0.13017
			CHANNELS 3 Zrotation Yrotation Xrotation
			JOINT Spine1
			{
				OFFSET 0.02887 2.30677 0.00834
				CHANNELS 3 Zrotation Yrotation Xrotation
				JOINT Neck
				{
					OFFSET 0 0 0
					CHANNELS 3 Zrotation Yrotation Xrotation
					JOINT Neck1
					{
						OFFSET 0.12946 1.68326 0.00713
						CHANNELS 3 Zrotation Yrotation Xrotation
						JOINT Head
						{
							OFFSET -0.24364 1.67243 -0.16079
							CHANNELS 3 Zrotation Yrotation Xrotation
							End Site
							{
								OFFSET -0.09229 1.70819 -0.06383
							}
						}
					}
				}
				JOINT LeftShoulder
				{
					OFFSET 0 0 0
					CHANNELS 3 Zrotation Yrotation Xrotation
					JOINT LeftArm
					{
						OFFSET 3.28104 0.69567 -0.00556
						CHANNELS 3 Zrotation Yrotation Xrotation
						JOINT LeftForeArm
						{
							OFFSET 5.70706 -0.00000 -0.00000
							CHANNELS 3 Zrotation Yrotation Xrotation
							JOINT LeftHand
							{
								OFFSET 3.33243 -0.00000 0.00000
								CHANNELS 3 Zrotation Yrotation Xrotation
								JOINT LeftFingerBase
								{
									OFFSET 0 0 0
									CHANNELS 3 Zrotation Yrotation Xrotation
									JOINT LeftHandIndex1
									{
										OFFSET 0.79269 -0.00000 0.00000
										CHANNELS 3 Zrotation Yrotation Xrotation
										End Site
										{
											OFFSET 0.63909 -0.00000 0.00000
										}
									}
								}
								JOINT LThumb
								{
									OFFSET 0 0 0
									CHANNELS 3 Zrotation Yrotation Xrotation
									End Site
									{
										OFFSET 0.64884 -0.00000 0.64884
									}
								}
							}
						}
					}
				}
				JOINT RightShoulder
				{
					OFFSET 0 0 0
					CHANNELS 3 Zrotation Yrotation Xrotation
					JOINT RightArm
					{
						OFFSET -3.40955 0.64424 0.14010
						CHANNELS 3 Zrotation Yrotation Xrotation
						JOINT RightForeArm
						{
							OFFSET -5.88176 -0.00000 -0.00000
							CHANNELS 3 Zrotation Yrotation Xrotation
							JOINT RightHand
							{
								OFFSET -3.28156 -0.00000 0.00000
								CHANNELS 3 Zrotation Yrotation Xrotation
								JOINT RightFingerBase
								{
									OFFSET 0 0 0
									CHANNELS 3 Zrotation Yrotation Xrotation
									JOINT RightHandIndex1
									{
										OFFSET -0.86313 -0.00000 0.00000
										CHANNELS 3 Zrotation Yrotation Xrotation
										End Site
										{
											OFFSET -0.69587 -0.00000 0.00000
										}
									}
								}
								JOINT RThumb
								{
									OFFSET 0 0 0
									CHANNELS 3 Zrotation Yrotation Xrotation
									End Site
									{
										OFFSET -0.70650 -0.00000 0.70650
									}
								}
							}
						}
					}
				}
			}
		}
	}
}
MOTION
Frames: 7
Frame Time: 0.0212766
0.00 0.00 0.00 0 0 0 0 0 0 -21 0 0 0 0 0 0 0 0 0 0 0 0 0 0 21 0 0 0 0 0 0 0 0 0 0 0 0 0 0 0 0 0 0 0 0 0 0 -16 0 0 21 0 0 11 0 0 0 -8 0 0 0 0 0 0 0 0 0 0 0 0 0 0 0 0 0 0 0 0 8 0 0 0 0 0 0 0 0 0 0 0 0 0 0 0 0 0
0.00 0.00 0.00 2.2802 3.9799 -0.3022 0.0000 0.0000 0.0000 -8.7365 -8.6118 -42.3388 15.8357 19.5790 77.7417 0.2493 1.2361 9.0784 0.0451 -1.3708 -3.7697 0.0000 0.0000 0.0000 18.8912 10.4768 -18.4134 -8.7879 -16.6693 55.3536 -0.2657 5.5737 -9.3838 -0.2451 3.1856 -8.7960 3.8602 -1.4361 15.0211 1.7567 -1.3062 6.8557 -0.1345 -0.5930 -1.2041 15.4198 6.6366 1.1041 -20.6032 11.2326 13.6014 -8.6733 5.3654 5.8853 0.0000 -0.0000 0.0000 -81.2511 14.7769 30.6532 29.3475 -40.3275 -10.9849 -0.0000 0.0000 -12.6277 14.6887 20.0375 5.1323 -7.1250 0.0000 -0.0000 -13.6376 50.1395 -1.7563 0.0000 -0.0000 0.0000 81.9636 -2.2806 31.1079 -63.0015 57.0581 -36.8495 0.0000 0.0000 2.4952 -13.7385 13.6896 -3.3115 7.1250 -0.0000 -0.0000 9.3549 -16.0249 6.4971
0.00 0.00 0.00 1.5447 3.8115 1.0182 0.0000 0.0000 0.0000 -8.2514 -10.0022 -42.7254 10.5964 17.7318 61.4636 0.5384 -0.0657 13.8892 0.6974 -5.3382 -14.8758 0.0000 0.0000 0.0000 19.1003 7.9016 -13.2648 -6.2589 -14.6746 46.0121 -0.0713 6.4116 -6.1540 -0.1267 2.2950 -6.3215 4.1004 -0.9337 13.9041 1.7464 -0.6773 6.7175 -0.3925 -0.2705 -0.7385 14.9610 6.8237 -0.0781 -20.5097 11.4876 14.3380 -8.5095 5.3872 6.3449 -0.0000 0.0000 0.0000 -82.0778 15.3116 30.5746 29.3780 -40.3543 -11.0046 -0.0000 0.0000 -12.7403 14.1680 20.6684 5.0917 -7.1250 0.0000 -0.0000 -14.3843 50.6798 -2.0498 -0.0000 0.0000 0.0000 81.1367 -2.4854 31.7439 -67.0135 57.9062 -40.2330 0.0000 0.0000 1.1489 -12.3693 12.3565 -2.6869 7.1250 -0.0000 -0.0000 10.3170 -17.4613 6.8585
0.00 0.00 0.00 -0.0620 2.4786 3.0234 0.0000 0.0000 0.0000 -6.8488 -11.1982 -39.8949 5.8978 14.3286 44.5701 0.8632 -0.9467 17.9212 1.2717 -7.1474 -20.1527 0.0000 0.0000 0.0000 19.3342 6.1014 -9.5608 -4.5850 -12.9007 38.9978 0.1027 7.7946 -2.8541 -0.1972 2.8596 -7.8882 4.3844 -0.4352 12.5657 1.5260 -0.0425 5.7545 -0.8755 0.0351 -1.0079 15.8765 6.9411 0.9820 -21.3197 11.6955 13.2617 -8.9583 5.5831 5.9692 -0.0000 0.0000 0.0000 -81.9643 17.2173 32.2071 27.8496 -38.9774 -10.0289 -0.0000 0.0000 -12.9972 13.5504 23.3487 5.4562 -7.1250 0.0000 -0.0000 -16.1723 53.1929 -3.3281 -0.0000 0.0000 0.0000 81.0419 -3.1682 32.5017 -68.8717 58.2442 -41.8102 0.0000 0.0000 0.6435 -12.7082 13.8471 -3.0894 7.1250 -0.0000 -0.0000 10.0564 -15.9410 7.0180
0.00 0.00 0.00 -2.8838 1.3606 4.3730 0.0000 0.0000 0.0000 -9.7435 -6.6999 -38.8814 8.8097 16.6837 55.4295 -0.4500 -11.9958 2.0531 2.5842 -9.9894 -28.9425 0.0000 0.0000 0.0000 16.7636 7.7774 -12.6629 -8.8718 -16.7245 55.6457 0.0622 6.7298 7.8553 -0.1485 -2.4830 6.8425 0.4648 -1.4436 13.9831 0.4798 -1.8188 5.2502 0.5223 -0.9019 -2.3045 16.1233 7.6724 0.5414 -20.2120 12.3314 12.5296 -8.4974 5.9091 5.9092 -0.0000 0.0000 0.0000 -81.0496 10.1507 27.5193 22.2329 -33.2392 -6.7130 -0.0000 0.0000 -7.4342 12.2868 27.8134 5.8025 -7.1250 0.0000 -0.0000 -19.9724 57.2079 -6.1384 -0.0000 0.0000 0.0000 84.5688 -2.2877 25.5341 -28.8731 39.9077 -10.6792 0.0000 0.0000 4.5661 -20.4332 17.5229 -6.4002 7.1250 -0.0000 -0.0000 4.9536 -11.4129 3.8904
0.00 0.00 0.00 -2.1000 4.0780 3.6080 0.0000 0.0000 0.0000 -12.3840 -6.7073 -37.9111 10.4243 17.6416 60.8974 -0.6718 -15.4009 -0.3243 1.9119 -8.6801 -24.7997 0.0000 0.0000 0.0000 14.5091 10.7010 -19.6875 -13.8015 -19.0527 71.5973 -0.6601 1.3464 15.8927 -1.2895 -7.1953 20.2952 -0.8451 -1.6312 15.2954 -0.5770 -2.2732 5.5792 0.2636 -1.1235 -2.6506 15.4538 7.1346 0.7405 -19.4704 11.7600 14.2894 -8.2240 5.6018 6.2079 -0.0000 0.0000 0.0000 -78.1352 5.5763 27.7215 34.7882 -44.6603 -14.6643 -0.0000 0.0000 -8.7494 16.2420 28.0061 7.7894 -7.1250 0.0000 -0.0000 -16.0047 58.2414 -5.2719 -0.0000 0.0000 0.0000 85.5765 -6.3954 23.2122 -18.5143 28.8108 -4.7945 0.0000 0.0000 8.1018 -13.1990 15.9715 -3.6923 7.1250 -0.0000 -0.0000 9.7138 -13.7654 7.2302
0.00 0.00 0.00 -1.9694 5.3666 3.6257 0.0000 0.0000 0.0000 -13.4887 -6.2338 -36.7441 10.8252 17.8485 62.2126 -0.9215 -16.8811 3.7027 0.4821 -4.4527 -12.3538 0.0000 0.0000 0.0000 14.6065 12.4509 -28.9570 -16.7725 -19.7484 80.5254 0.0000 -0.4528 0.3018 -0.2426 -3.1696 8.7513 -1.9885 -1.9728 15.6408 -0.6865 -2.8855 5.9130 0.9008 -1.4370 -2.4236 15.5922 7.3697 1.1552 -19.6763 12.2093 14.6743 -8.3041 5.8274 6.3625 0.0000 -0.0000 0.0000 -76.9863 1.7829 27.0497 55.3172 -54.9272 -30.4755 -0.0000 0.0000 -7.3969 19.5568 23.8679 8.1796 -7.1250 0.0000 -0.0000 -10.3796 54.8322 -2.5269 0.0000 -0.0000 0.0000 85.6791 -9.4901 24.5272 -16.4696 26.1533 -3.8506 0.0000 0.0000 18.3904 -6.2425 19.4160 -2.0825 7.1250 -0.0000 -0.0000 14.2177 -10.9079 11.6441
